<svg xmlns="http://www.w3.org/2000/svg" xmlns:xlink="http://www.w3.org/1999/xlink"
	 viewBox="0 0 31.388 31.388"
	 xml:space="preserve">
		<path fill="currentColor" d="M8.401,19.99l-1.215,6.398h17.017l-1.215-6.398H8.401z M8.393,25.388l0.835-4.398h12.93l0.836,4.398H8.393z"/>
		<path fill="currentColor" d="M8.401,6.939h14.587v1.503h1.822V7.43C24.811,6.094,23.717,5,22.38,5H9.008C7.671,5,6.577,6.094,6.577,7.43v1.012H8.4
			L8.401,6.939L8.401,6.939z"/>
		<path fill="currentColor" d="M28.457,9.158H2.931C1.315,9.158,0,10.472,0,12.089v7.294C0,21,1.315,22.314,2.931,22.314h3.155l0.868-3.039h17.48
			l0.868,3.039h3.155c1.615,0,2.931-1.313,2.931-2.931v-7.294C31.388,10.472,30.072,9.158,28.457,9.158z M30.388,19.382
			c0,1.064-0.866,1.932-1.931,1.932h-2.401l-0.868-3.039H6.2l-0.868,3.039H2.931C1.866,21.314,1,20.447,1,19.382v-7.294
			c0-1.064,0.866-1.931,1.931-1.931h25.526c1.064,0,1.931,0.866,1.931,1.931V19.382z"/>
		<circle fill="currentColor" cx="25.053" cy="12.57" r="0.912"/>
		<circle fill="currentColor" cx="27.686" cy="12.57" r="0.708"/>
		<path fill="currentColor" d="M21.193,23.732h-11c-0.276,0-0.5,0.225-0.5,0.5c0,0.276,0.224,0.5,0.5,0.5h11c0.276,0,0.5-0.224,0.5-0.5
			C21.693,23.957,21.47,23.732,21.193,23.732z"/>
		<path fill="currentColor" d="M21.193,21.888h-11c-0.276,0-0.5,0.225-0.5,0.5s0.224,0.5,0.5,0.5h11c0.276,0,0.5-0.225,0.5-0.5
			S21.47,21.888,21.193,21.888z"/>
</svg>
